<!-- asana —— 取自 simple-icons（图标本体 CC0-1.0；商标归各自所有者，此处仅作服务识别）。
     单色路径 + 品牌色填充。底是透明的，标直接坐在卡片上，所以这个颜色要在浅色和深色两种卡片底色上都过得去。 -->
<svg xmlns="http://www.w3.org/2000/svg" viewBox="0 0 24 24" fill="#F06A6A">
<path d="M18.78 12.653c-2.882 0-5.22 2.336-5.22 5.22s2.338 5.22 5.22 5.22 5.22-2.34 5.22-5.22-2.336-5.22-5.22-5.22zm-13.56 0c-2.88 0-5.22 2.337-5.22 5.22s2.338 5.22 5.22 5.22 5.22-2.338 5.22-5.22-2.336-5.22-5.22-5.22zm12-6.525c0 2.883-2.337 5.22-5.22 5.22-2.882 0-5.22-2.337-5.22-5.22 0-2.88 2.338-5.22 5.22-5.22 2.883 0 5.22 2.34 5.22 5.22z"/>
</svg>
